<?xml version="1.0" encoding="UTF-8"?>
<svg xmlns="http://www.w3.org/2000/svg" xmlns:xlink="http://www.w3.org/1999/xlink" xmlns:svgjs="http://svgjs.com/svgjs" version="1.1" width="512" height="512" x="0" y="0" viewBox="0 0 512 512" style="enable-background:new 0 0 512 512" xml:space="preserve" class=""><g><g xmlns="http://www.w3.org/2000/svg"><path d="m264 24.132v-16.132c0-4.418-3.582-8-8-8s-8 3.582-8 8v16.132c-125.039 3.663-232 95.553-232 215.868 0 5.97 6.328 9.847 11.647 7.12 40.233-20.611 89-21.821 130.454-3.238 6.883 3.086 9.668 5.221 13.997 3.495 2.798-1.158-10.238 4.079 27.72-11.045 15.367-6.123 31.707-9.604 48.182-10.456v142.124h-8c-4.418 0-8 3.582-8 8v76c0 3.203-1.249 6.215-3.516 8.483-7.495 7.494-20.484 2.243-20.484-8.483v-28c0-6.403-2.491-12.429-7.033-16.986-15.099-15.048-40.967-4.269-40.967 16.986v28c0 33.161 26.834 60 60 60 33.084 0 60-26.916 60-60v-76c0-4.418-3.582-8-8-8h-8v-142.124c29.937 1.549 46.628 9.836 75.879 21.492 1.406.625 3.272.834 5.074.382 1.137-.286 1.552-.554 8.946-3.868 41.457-18.584 90.225-17.372 130.454 3.238 5.315 2.723 11.647-1.144 11.647-7.12 0-120.61-107.278-212.215-232-215.868zm-44 471.868c-24.319 0-44-19.678-44-44v-28c0-4.411 3.589-8 8-8 4.435 0 8 3.567 8 8v28c0 15.439 12.561 28 28 28 15.47 0 28-12.53 28-28v-68h16v68c0 24.262-19.738 44-44 44zm-187.554-268.697c6.824-96.731 91.018-175.016 197.813-185.978-49.121 45.693-67.273 119.595-69.078 186.457-40.964-17.234-87.937-17.296-128.735-.479zm224.156-17.623c-.551-.04-.653-.04-1.205 0-35.311.124-56.81 9.918-78.223 18.451 2.043-75.286 23.274-122.048 41.24-148.363 15.323-22.444 30.795-34.056 37.584-38.464 6.806 4.419 22.271 16.031 37.586 38.464 17.966 26.315 39.197 73.078 41.24 148.363-21.398-8.527-42.653-18.326-78.222-18.451zm94.217 18.102c-1.805-66.844-19.947-140.754-69.078-186.457 106.795 10.961 190.988 89.247 197.813 185.978-40.798-16.816-87.772-16.754-128.735.479z" fill="#1171a1" data-original="#000000" style="" class=""/></g></g></svg>