<?xml version="1.0"?>
<svg xmlns="http://www.w3.org/2000/svg" xmlns:xlink="http://www.w3.org/1999/xlink" xmlns:svgjs="http://svgjs.com/svgjs" version="1.1" width="512" height="512" x="0" y="0" viewBox="0 0 511 512" style="enable-background:new 0 0 512 512" xml:space="preserve"><g><path xmlns="http://www.w3.org/2000/svg" d="m498.816406 295.5625-198.628906 198.886719c-11.71875 11.699219-27.105469 17.550781-42.488281 17.550781-15.378907 0-30.75-5.84375-42.457031-17.53125l-200.976563-198.789062c-13.457031-13.4375-17.4375-33.371094-10.207031-50.855469 7.242187-17.5 24.167968-28.808594 43.125-28.808594h66.289062v-58.003906c0-11.046875 8.957032-20.003907 20.003906-20.003907 11.046876 0 20 8.957032 20 20.003907v78.003906c0 11.046875-8.953124 20-20 20h-86.292968c-3.882813 0-5.527344 2.570313-6.160156 4.105469-.769532 1.855468-1.140626 4.605468 1.4375 7.183594l200.980468 198.789062c7.894532 7.886719 20.632813 7.886719 28.464844.066406l198.605469-198.863281c2.574219-2.578125 2.199219-5.328125 1.429687-7.183594-.632812-1.527343-2.277344-4.097656-6.160156-4.097656h-82.289062c-11.046876 0-20-8.953125-20-20v-78.007813c0-11.046874 8.953124-20 20-20 11.046874 0 20 8.953126 20 20v58.003907h62.289062c18.941406 0 35.863281 11.296875 43.113281 28.78125 7.238281 17.460937 3.285157 37.390625-10.078125 50.769531zm-365.339844-255.558594c11.046876 0 20-8.957031 20-20.003906s-8.953124-20-20-20c-11.046874 0-20.003906 8.953125-20.003906 20s8.957032 20.003906 20.003906 20.003906zm0 70.003906c11.046876 0 20-8.957031 20-20.003906 0-11.042968-8.953124-20-20-20-11.046874 0-20.003906 8.957032-20.003906 20 0 11.046875 8.957032 20.003906 20.003906 20.003906zm250.015626-70.003906c11.046874 0 20-8.957031 20-20.003906s-8.953126-20-20-20c-11.046876 0-20 8.953125-20 20s8.953124 20.003906 20 20.003906zm0 70.003906c11.046874 0 20-8.957031 20-20.003906 0-11.042968-8.953126-20-20-20-11.046876 0-20 8.957032-20 20 0 11.046875 8.953124 20.003906 20 20.003906zm-114.375 190.011719h-29.785157c-4.765625 0-9.890625-2.738281-9.890625-8.75 0-11.046875-8.957031-20-20-20-11.046875 0-20.003906 8.953125-20.003906 20 0 26.726563 20.949219 47.777344 48.023438 48.707031v11.046876c0 11.046874 8.953124 20 20 20 11.046874 0 20.003906-8.953126 20.003906-20v-11.582032c27.511718-3.828125 48.023437-26.355468 48.023437-54.421875v-12.160156c0-15.113281-5.917969-29.234375-16.660156-39.753906-10.589844-10.378907-24.695313-16.089844-39.710937-16.089844h-18.328126c-8.808593 0-16.253906-7.789063-16.253906-17.003906v-7.292969c0-8.953125 6.988282-15.707031 16.253906-15.707031h17.332032c5.09375 0 10.363281 3.410156 10.363281 9.117187 0 11.046875 8.957031 20 20 20 11.046875 0 20.003906-8.953125 20.003906-20 0-23.972656-17.703125-43.972656-41.023437-48.257812v-12.863282c0-11.046874-8.953125-20-20-20s-20.003906 8.953126-20.003906 20v13.550782c-9.898438 2.335937-18.964844 7.269531-26.320313 14.464844-10.710937 10.480468-16.609375 24.578124-16.609375 39.695312v7.292969c0 31.433593 25.238281 57.003906 56.257812 57.003906h18.328126c9.179687 0 16.367187 6.960937 16.367187 15.84375v12.160156c0 9.847657-8.234375 15-16.367187 15zm0 0" fill="#ffffff" data-original="#000000" style=""/></g></svg>
