<?xml version="1.0" encoding="UTF-8"?>
<svg xmlns="http://www.w3.org/2000/svg" xmlns:xlink="http://www.w3.org/1999/xlink" xmlns:svgjs="http://svgjs.com/svgjs" version="1.1" width="512" height="512" x="0" y="0" viewBox="0 0 64 64" style="enable-background:new 0 0 512 512" xml:space="preserve" class=""><g><path xmlns="http://www.w3.org/2000/svg" d="m61 20h-13v-17c0-.553-.448-1-1-1h-30c-.552 0-1 .447-1 1v17h-13c-.552 0-1 .447-1 1v40c0 .553.448 1 1 1h58c.552 0 1-.447 1-1v-40c0-.553-.448-1-1-1zm-57 2h12v38h-12zm31 28v10h-6v-10zm11 10h-9v-10h2v-2h-14v2h2v10h-9v-56h28zm14 0h-12v-38h12z" fill="#1171a1" data-original="#000000" style="" class=""/><path xmlns="http://www.w3.org/2000/svg" d="m51 32h6c.552 0 1-.447 1-1v-6c0-.553-.448-1-1-1h-6c-.552 0-1 .447-1 1v6c0 .553.448 1 1 1zm1-6h4v4h-4z" fill="#1171a1" data-original="#000000" style="" class=""/><path xmlns="http://www.w3.org/2000/svg" d="m51 42h6c.552 0 1-.447 1-1v-6c0-.553-.448-1-1-1h-6c-.552 0-1 .447-1 1v6c0 .553.448 1 1 1zm1-6h4v4h-4z" fill="#1171a1" data-original="#000000" style="" class=""/><path xmlns="http://www.w3.org/2000/svg" d="m51 52h6c.552 0 1-.447 1-1v-6c0-.553-.448-1-1-1h-6c-.552 0-1 .447-1 1v6c0 .553.448 1 1 1zm1-6h4v4h-4z" fill="#1171a1" data-original="#000000" style="" class=""/><path xmlns="http://www.w3.org/2000/svg" d="m13 24h-6c-.552 0-1 .447-1 1v6c0 .553.448 1 1 1h6c.552 0 1-.447 1-1v-6c0-.553-.448-1-1-1zm-1 6h-4v-4h4z" fill="#1171a1" data-original="#000000" style="" class=""/><path xmlns="http://www.w3.org/2000/svg" d="m21 28h4c.552 0 1-.447 1-1v-4c0-.553-.448-1-1-1h-4c-.552 0-1 .447-1 1v4c0 .553.448 1 1 1zm1-4h2v2h-2z" fill="#1171a1" data-original="#000000" style="" class=""/><path xmlns="http://www.w3.org/2000/svg" d="m34 22h-4c-.552 0-1 .447-1 1v4c0 .553.448 1 1 1h4c.552 0 1-.447 1-1v-4c0-.553-.448-1-1-1zm-1 4h-2v-2h2z" fill="#1171a1" data-original="#000000" style="" class=""/><path xmlns="http://www.w3.org/2000/svg" d="m38 23v4c0 .553.448 1 1 1h4c.552 0 1-.447 1-1v-4c0-.553-.448-1-1-1h-4c-.552 0-1 .447-1 1zm2 1h2v2h-2z" fill="#1171a1" data-original="#000000" style="" class=""/><path xmlns="http://www.w3.org/2000/svg" d="m21 36h4c.552 0 1-.447 1-1v-4c0-.553-.448-1-1-1h-4c-.552 0-1 .447-1 1v4c0 .553.448 1 1 1zm1-4h2v2h-2z" fill="#1171a1" data-original="#000000" style="" class=""/><path xmlns="http://www.w3.org/2000/svg" d="m34 30h-4c-.552 0-1 .447-1 1v4c0 .553.448 1 1 1h4c.552 0 1-.447 1-1v-4c0-.553-.448-1-1-1zm-1 4h-2v-2h2z" fill="#1171a1" data-original="#000000" style="" class=""/><path xmlns="http://www.w3.org/2000/svg" d="m43 30h-4c-.552 0-1 .447-1 1v4c0 .553.448 1 1 1h4c.552 0 1-.447 1-1v-4c0-.553-.448-1-1-1zm-1 4h-2v-2h2z" fill="#1171a1" data-original="#000000" style="" class=""/><path xmlns="http://www.w3.org/2000/svg" d="m21 44h4c.552 0 1-.447 1-1v-4c0-.553-.448-1-1-1h-4c-.552 0-1 .447-1 1v4c0 .553.448 1 1 1zm1-4h2v2h-2z" fill="#1171a1" data-original="#000000" style="" class=""/><path xmlns="http://www.w3.org/2000/svg" d="m34 38h-4c-.552 0-1 .447-1 1v4c0 .553.448 1 1 1h4c.552 0 1-.447 1-1v-4c0-.553-.448-1-1-1zm-1 4h-2v-2h2z" fill="#1171a1" data-original="#000000" style="" class=""/><path xmlns="http://www.w3.org/2000/svg" d="m43 38h-4c-.552 0-1 .447-1 1v4c0 .553.448 1 1 1h4c.552 0 1-.447 1-1v-4c0-.553-.448-1-1-1zm-1 4h-2v-2h2z" fill="#1171a1" data-original="#000000" style="" class=""/><path xmlns="http://www.w3.org/2000/svg" d="m13 34h-6c-.552 0-1 .447-1 1v6c0 .553.448 1 1 1h6c.552 0 1-.447 1-1v-6c0-.553-.448-1-1-1zm-1 6h-4v-4h4z" fill="#1171a1" data-original="#000000" style="" class=""/><path xmlns="http://www.w3.org/2000/svg" d="m13 44h-6c-.552 0-1 .447-1 1v6c0 .553.448 1 1 1h6c.552 0 1-.447 1-1v-6c0-.553-.448-1-1-1zm-1 6h-4v-4h4z" fill="#1171a1" data-original="#000000" style="" class=""/><path xmlns="http://www.w3.org/2000/svg" d="m26 16h3v3c0 .553.448 1 1 1h4c.552 0 1-.447 1-1v-3h3c.552 0 1-.447 1-1v-4c0-.553-.448-1-1-1h-3v-3c0-.553-.448-1-1-1h-4c-.552 0-1 .447-1 1v3h-3c-.552 0-1 .447-1 1v4c0 .553.448 1 1 1zm1-4h3c.552 0 1-.447 1-1v-3h2v3c0 .553.448 1 1 1h3v2h-3c-.552 0-1 .447-1 1v3h-2v-3c0-.553-.448-1-1-1h-3z" fill="#1171a1" data-original="#000000" style="" class=""/><path xmlns="http://www.w3.org/2000/svg" d="m42 56h2v2h-2z" fill="#1171a1" data-original="#000000" style="" class=""/><path xmlns="http://www.w3.org/2000/svg" d="m42 52h2v2h-2z" fill="#1171a1" data-original="#000000" style="" class=""/><path xmlns="http://www.w3.org/2000/svg" d="m42 48h2v2h-2z" fill="#1171a1" data-original="#000000" style="" class=""/></g></svg>