<?xml version="1.0"?>
<svg xmlns="http://www.w3.org/2000/svg" xmlns:xlink="http://www.w3.org/1999/xlink" xmlns:svgjs="http://svgjs.com/svgjs" version="1.1" width="512" height="512" x="0" y="0" viewBox="0 0 512 512" style="enable-background:new 0 0 512 512" xml:space="preserve" class=""><g><g xmlns="http://www.w3.org/2000/svg" id="XMLID_948_"><g id="XMLID_1067_"><path id="XMLID_1282_" d="m144 288c79.402 0 144-64.598 144-144s-64.598-144-144-144-144 64.598-144 144 64.598 144 144 144zm0-268c68.374 0 124 55.626 124 124s-55.626 124-124 124-124-55.626-124-124 55.626-124 124-124z" fill="#ffffff" data-original="#000000" style=""/><path id="XMLID_1306_" d="m112.846 209.485c1.407.683 2.895 1.007 4.361 1.007 3.709 0 7.273-2.073 9.003-5.634l55.024-113.306c2.413-4.968.341-10.951-4.627-13.364-4.969-2.413-10.951-.341-13.364 4.627l-55.024 113.306c-2.413 4.968-.342 10.951 4.627 13.364z" fill="#ffffff" data-original="#000000" style=""/><path id="XMLID_1329_" d="m96.093 127.209c17.648 0 32.005-14.357 32.005-32.005s-14.357-32.005-32.005-32.005-32.006 14.356-32.006 32.004 14.358 32.006 32.006 32.006zm0-44.011c6.62 0 12.005 5.386 12.005 12.005s-5.386 12.005-12.005 12.005-12.005-5.386-12.005-12.005 5.385-12.005 12.005-12.005z" fill="#ffffff" data-original="#000000" style=""/><path id="XMLID_1332_" d="m161.681 192.797c0 17.648 14.357 32.005 32.005 32.005s32.005-14.357 32.005-32.005-14.357-32.005-32.005-32.005-32.005 14.357-32.005 32.005zm32.005-12.005c6.62 0 12.005 5.386 12.005 12.005s-5.386 12.005-12.005 12.005-12.005-5.386-12.005-12.005 5.385-12.005 12.005-12.005z" fill="#ffffff" data-original="#000000" style=""/><path id="XMLID_1336_" d="m502 492h-30v-109.93c0-5.523-4.477-10-10-10s-10 4.477-10 10v109.93h-84v-288.076c0-5.523-4.477-10-10-10h-15.858l67.858-67.858 67.858 67.858h-15.858c-5.523 0-10 4.477-10 10v88.146c0 5.523 4.477 10 10 10s10-4.477 10-10v-78.146h30c4.044 0 7.691-2.437 9.239-6.173s.692-8.038-2.167-10.898l-92-92c-3.905-3.905-10.237-3.905-14.143 0l-92 92c-2.86 2.86-3.715 7.161-2.167 10.898s5.194 6.173 9.239 6.173h30v278.076h-30v-174.5c0-5.523-4.477-10-10-10h-104.001c-5.523 0-10 4.477-10 10v174.5h-30v-108c0-5.523-4.477-10-10-10h-104c-5.523 0-10 4.477-10 10v108h-30c-5.523 0-10 4.477-10 10s4.477 10 10 10h492c5.523 0 10-4.477 10-10s-4.477-10-10-10zm-442 0v-98h84v98zm154 0v-164.5h84v164.5z" fill="#ffffff" data-original="#000000" style=""/><path id="XMLID_1361_" d="m462.03 327.07c-2.63 0-5.21 1.07-7.07 2.93s-2.93 4.44-2.93 7.07 1.07 5.21 2.93 7.07 4.44 2.93 7.07 2.93 5.21-1.07 7.07-2.93 2.93-4.44 2.93-7.07-1.07-5.21-2.93-7.07-4.44-2.93-7.07-2.93z" fill="#ffffff" data-original="#000000" style=""/></g></g></g></svg>
