<?xml version="1.0" encoding="UTF-8"?>
<svg xmlns="http://www.w3.org/2000/svg" xmlns:xlink="http://www.w3.org/1999/xlink" xmlns:svgjs="http://svgjs.com/svgjs" version="1.1" width="512" height="512" x="0" y="0" viewBox="0 0 74 74" style="enable-background:new 0 0 512 512" xml:space="preserve" class=""><g><g xmlns="http://www.w3.org/2000/svg" id="Numbers"><text fill="rgb(0,0,0)" font-family="ArialMT, Arial" font-size="18" transform="translate(31.995 -17.877)" svgjs:data="{&quot;leading&quot;:&quot;1.3&quot;}">4<tspan x="-5.005" y="124" svgjs:data="{&quot;leading&quot;:&quot;1.3&quot;}">14</tspan><tspan x="-5.005" y="248" svgjs:data="{&quot;leading&quot;:&quot;1.3&quot;}">24</tspan><tspan x="-5.005" y="372" svgjs:data="{&quot;leading&quot;:&quot;1.3&quot;}">34</tspan><tspan x="-5.005" y="496" svgjs:data="{&quot;leading&quot;:&quot;1.3&quot;}">44</tspan><tspan x="-5.005" y="620" svgjs:data="{&quot;leading&quot;:&quot;1.3&quot;}">54</tspan><tspan x="-5.005" y="744" svgjs:data="{&quot;leading&quot;:&quot;1.3&quot;}">64</tspan><tspan x="-5.005" y="868" svgjs:data="{&quot;leading&quot;:&quot;1.3&quot;}">74</tspan><tspan x="-5.005" y="992" svgjs:data="{&quot;leading&quot;:&quot;1.3&quot;}">84</tspan><tspan x="-5.005" y="1116" svgjs:data="{&quot;leading&quot;:&quot;1.3&quot;}">94</tspan><tspan x="-10.011" y="1240" svgjs:data="{&quot;leading&quot;:&quot;1.3&quot;}">104</tspan><tspan letter-spacing="-.074em" x="-9.343" y="1364" svgjs:data="{&quot;leading&quot;:&quot;1.3&quot;}">1</tspan><tspan x="-.668" y="1364" svgjs:data="{&quot;leading&quot;:&quot;1.3&quot;}">14</tspan><tspan x="-10.011" y="1488" svgjs:data="{&quot;leading&quot;:&quot;1.3&quot;}">124</tspan><tspan x="-10.011" y="1612" svgjs:data="{&quot;leading&quot;:&quot;1.3&quot;}">134</tspan><tspan x="-10.011" y="1736" svgjs:data="{&quot;leading&quot;:&quot;1.3&quot;}">144</tspan><tspan x="-10.011" y="1860" svgjs:data="{&quot;leading&quot;:&quot;1.3&quot;}">154</tspan><tspan x="-10.011" y="1984" svgjs:data="{&quot;leading&quot;:&quot;1.3&quot;}">164</tspan><tspan x="-10.011" y="2108" svgjs:data="{&quot;leading&quot;:&quot;1.3&quot;}">174</tspan><tspan x="-10.011" y="2232" svgjs:data="{&quot;leading&quot;:&quot;1.3&quot;}">184</tspan><tspan x="-10.011" y="2356" svgjs:data="{&quot;leading&quot;:&quot;1.3&quot;}">194</tspan><tspan x="-10.011" y="2480" svgjs:data="{&quot;leading&quot;:&quot;1.3&quot;}">204</tspan><tspan x="-10.011" y="2604" svgjs:data="{&quot;leading&quot;:&quot;1.3&quot;}">214</tspan><tspan x="-10.011" y="2728" svgjs:data="{&quot;leading&quot;:&quot;1.3&quot;}">224</tspan><tspan x="-10.011" y="2852" svgjs:data="{&quot;leading&quot;:&quot;1.3&quot;}">234</tspan><tspan x="-10.011" y="2976" svgjs:data="{&quot;leading&quot;:&quot;1.3&quot;}">244</tspan><tspan x="-10.011" y="3100" svgjs:data="{&quot;leading&quot;:&quot;1.3&quot;}">254</tspan><tspan x="-10.011" y="3224" svgjs:data="{&quot;leading&quot;:&quot;1.3&quot;}">264</tspan><tspan x="-10.011" y="3348" svgjs:data="{&quot;leading&quot;:&quot;1.3&quot;}">274</tspan><tspan x="-10.011" y="3472" svgjs:data="{&quot;leading&quot;:&quot;1.3&quot;}">284</tspan><tspan x="-10.011" y="3596" svgjs:data="{&quot;leading&quot;:&quot;1.3&quot;}">294</tspan></text></g><g xmlns="http://www.w3.org/2000/svg" id="Icons"><path d="m30.375 55.539h-16.575a1.5 1.5 0 0 1 -1.5-1.5v-3.704a1.5 1.5 0 0 1 1.5-1.5h16.575a1.5 1.5 0 0 1 1.5 1.5v3.706a1.5 1.5 0 0 1 -1.5 1.498zm-16.076-2h15.574v-2.7h-15.573z" fill="#1171a1" data-original="#000000" style=""/><path d="m46.715 72h-19.65a2.989 2.989 0 0 1 -2.2-5.008l4.654-5.075a1 1 0 1 1 1.474 1.352l-4.654 5.075a.989.989 0 0 0 .726 1.656h19.65a.988.988 0 0 0 .728-1.656l-4.653-5.075a1 1 0 0 1 1.475-1.352l4.652 5.075a2.988 2.988 0 0 1 -2.202 5.008z" fill="#1171a1" data-original="#000000" style=""/><path d="m36.89 64.665a22.076 22.076 0 0 1 -18.172-9.557 1 1 0 1 1 1.647-1.135 20.04 20.04 0 1 0 30.2-25.986 1 1 0 0 1 1.363-1.464 22.031 22.031 0 0 1 -15.038 38.142z" fill="#1171a1" data-original="#000000" style=""/><path d="m36.89 59.366a16.7 16.7 0 0 1 -10.916-4.066 1 1 0 0 1 1.308-1.513 14.72 14.72 0 0 0 20.096-21.487 1 1 0 1 1 1.422-1.406 16.578 16.578 0 0 1 4.832 11.73 16.761 16.761 0 0 1 -16.742 16.742z" fill="#1171a1" data-original="#000000" style=""/><path d="m45.665 33.15a6.642 6.642 0 1 1 6.641-6.642 6.649 6.649 0 0 1 -6.641 6.642zm0-11.283a4.642 4.642 0 1 0 4.641 4.641 4.647 4.647 0 0 0 -4.641-4.641z" fill="#1171a1" data-original="#000000" style=""/><path d="m45.665 29.729a3.221 3.221 0 1 1 3.221-3.221 3.224 3.224 0 0 1 -3.221 3.221zm0-4.442a1.221 1.221 0 1 0 1.221 1.221 1.222 1.222 0 0 0 -1.221-1.221z" fill="#1171a1" data-original="#000000" style=""/><path d="m34.8 38.211h-.032a1 1 0 0 1 -.7-.315l-9.595-10.244a1 1 0 0 1 .047-1.413l24.425-22.886a1 1 0 0 1 1.412.044l9.595 10.244a1 1 0 0 1 -.047 1.414l-9.2 8.617a1 1 0 0 1 -1.368-1.46l8.472-7.934-8.225-8.784-22.968 21.521 8.226 8.785 6.3-5.9a1 1 0 1 1 1.368 1.459l-7.03 6.589a1 1 0 0 1 -.68.263z" fill="#1171a1" data-original="#000000" style=""/><path d="m57.119 13.075a1 1 0 0 1 -.73-.317l-5.381-5.743a1 1 0 0 1 .047-1.415l3.291-3.084a1.918 1.918 0 0 1 2.709.088l4.128 4.406a1.919 1.919 0 0 1 -.089 2.709l-3.294 3.086a1 1 0 0 1 -.681.27zm-3.967-6.7 4.013 4.284 2.5-2.343-4.013-4.281z" fill="#1171a1" data-original="#000000" style=""/><path d="m27.38 40.6h-.065a1.9 1.9 0 0 1 -1.336-.6l-4.127-4.406a1.917 1.917 0 0 1 .088-2.709l4.687-4.391a1 1 0 0 1 1.414.046l5.381 5.743a1 1 0 0 1 -.047 1.414l-4.687 4.392a1.905 1.905 0 0 1 -1.308.511zm-4.012-6.318 4.014 4.283 3.9-3.65-4.013-4.284z" fill="#1171a1" data-original="#000000" style=""/></g></g></svg>