<?xml version="1.0"?>
<svg xmlns="http://www.w3.org/2000/svg" xmlns:xlink="http://www.w3.org/1999/xlink" xmlns:svgjs="http://svgjs.com/svgjs" version="1.1" width="512" height="512" x="0" y="0" viewBox="0 0 512 512" style="enable-background:new 0 0 512 512" xml:space="preserve" class=""><g><g xmlns="http://www.w3.org/2000/svg"><circle cx="216.013" cy="336" r="10" fill="#ffffff" data-original="#000000" style="" class=""/><path d="m40.013 136v40c0 5.523 4.477 10 10 10h289c5.522 0 10-4.477 10-10v-40c0-5.523-4.478-10-10-10h-289c-5.523 0-10 4.477-10 10zm106 10h183v20h-183zm-86 0h66v20h-66z" fill="#ffffff" data-original="#000000" style="" class=""/><path d="m50.013 226h289c5.522 0 10-4.477 10-10s-4.478-10-10-10h-289c-5.523 0-10 4.477-10 10s4.477 10 10 10z" fill="#ffffff" data-original="#000000" style="" class=""/><path d="m50.013 266h289c5.522 0 10-4.477 10-10s-4.478-10-10-10h-289c-5.523 0-10 4.477-10 10s4.477 10 10 10z" fill="#ffffff" data-original="#000000" style="" class=""/><path d="m50.013 306h166c5.523 0 10-4.477 10-10s-4.477-10-10-10h-166c-5.523 0-10 4.477-10 10s4.477 10 10 10z" fill="#ffffff" data-original="#000000" style="" class=""/><path d="m50.013 346h126c5.523 0 10-4.477 10-10s-4.477-10-10-10h-126c-5.523 0-10 4.477-10 10s4.477 10 10 10z" fill="#ffffff" data-original="#000000" style="" class=""/><path d="m136.013 426h51.006c4.646 22.795 24.847 40 48.994 40 27.57 0 50-22.43 50-50s-22.43-50-50-50c-24.146 0-44.348 17.205-48.994 40h-51.006c-5.523 0-10 4.477-10 10s4.477 10 10 10zm100-20h-28.28c4.128-11.639 15.243-20 28.28-20 16.542 0 30 13.458 30 30s-13.458 30-30 30c-13.036 0-24.152-8.361-28.28-20h28.28c5.522 0 10-4.477 10-10s-4.477-10-10-10z" fill="#ffffff" data-original="#000000" style="" class=""/><path d="m339.013 80c5.522 0 10-4.477 10-10s-4.478-10-10-10h-20c-5.522 0-10 4.477-10 10s4.478 10 10 10z" fill="#ffffff" data-original="#000000" style="" class=""/><path d="m279.013 80c5.522 0 10-4.477 10-10s-4.478-10-10-10h-20c-5.522 0-10 4.477-10 10s4.478 10 10 10z" fill="#ffffff" data-original="#000000" style="" class=""/><path d="m219.013 80c5.523 0 10-4.477 10-10s-4.477-10-10-10h-20c-5.523 0-10 4.477-10 10s4.477 10 10 10z" fill="#ffffff" data-original="#000000" style="" class=""/><circle cx="196.013" cy="502" r="10" fill="#ffffff" data-original="#000000" style="" class=""/><path d="m10.013 512h141c5.523 0 10-4.477 10-10s-4.477-10-10-10h-131v-392h70c5.523 0 10-4.477 10-10v-70h269v282.652c-4.536 5.367-8.772 10.079-12.437 13.839l-21.2-21.2c-19.535-19.548-51.173-19.557-70.715-.002l-14.14 14.14c-3.905 3.905-3.905 10.237 0 14.142l118.491 118.491v49.938h-128c-5.523 0-10 4.477-10 10s4.477 10 10 10h138c5.522 0 10-4.477 10-10v-39.938l2.929 2.929c3.905 3.902 10.238 3.905 14.143 0l14.14-14.14c19.538-19.538 19.542-51.171 0-70.712l-21.197-21.198c18.969-18.483 60.694-49.184 82.617-58.732 30.772-13.395 41.876-55.234 15.621-81.489-26.057-26.07-67.71-15.477-81.356 15.383-5.118 11.566-15.721 27.828-26.896 43.067v-267.17c0-5.523-4.478-10-10-10h-289c-2.727 0-5.29 1.15-7.071 2.929l-80 80c-1.809 1.805-2.929 4.357-2.929 7.071v412c0 5.523 4.477 10 10 10zm396.068-117.719c11.723 11.722 11.725 30.703 0 42.428l-7.068 7.069-127.278-127.278 7.071-7.071c11.722-11.728 30.697-11.734 42.426.002zm-19.23-81.778c17.33-20.901 38.692-50.747 47.348-70.309 7.773-17.577 32.476-25.787 48.923-9.333 16.454 16.454 8.095 41.369-9.462 49.011-24.883 10.838-68.192 42.8-88.776 62.926l-14.165-14.165c4.741-4.851 10.28-11.07 16.132-18.13zm-306.838-278.361v45.858h-45.858z" fill="#ffffff" data-original="#000000" style="" class=""/></g></g></svg>
