<?xml version="1.0"?>
<svg xmlns="http://www.w3.org/2000/svg" xmlns:xlink="http://www.w3.org/1999/xlink" xmlns:svgjs="http://svgjs.com/svgjs" version="1.1" width="512" height="512" x="0" y="0" viewBox="0 0 64 64" style="enable-background:new 0 0 512 512" xml:space="preserve" class=""><g><path xmlns="http://www.w3.org/2000/svg" d="m56.696 28.233 1.945-.467c-.178-.741-.422-1.47-.725-2.165l-1.834.801c.258.587.464 1.203.614 1.831z" fill="#ffffff" data-original="#000000" style=""/><path xmlns="http://www.w3.org/2000/svg" d="m57 30.793v.207c0 5.392-3.854 9.953-9.166 10.847l.332 1.973c6.277-1.057 10.834-6.449 10.834-12.82v-.207c0-.287-.01-.573-.028-.859l-1.996.133c.016.241.024.484.024.726z" fill="#ffffff" data-original="#000000" style=""/><path xmlns="http://www.w3.org/2000/svg" d="m59.061 19.909-5.848-7.016 3.26-5.705c.344-.604.527-1.291.527-1.985v-.203c0-2.206-1.794-4-4-4-1.33 0-2.036.808-2.504 1.342-.436.497-.61.658-.999.658-.39 0-.563-.161-1-.659-.468-.534-1.174-1.341-2.503-1.341-1.328 0-2.034.808-2.502 1.342-.434.497-.608.658-.996.658s-.561-.161-.995-.658c-.467-.534-1.173-1.342-2.501-1.342-2.206 0-4 1.794-4 4v.203c0 .694.183 1.381.527 1.984l3.26 5.705-2.278 2.733c-1.438-.396-2.946-.625-4.509-.625-9.374 0-17 7.626-17 17 0 3.302.961 6.377 2.597 8.989l-2.597 2.597-.938-.938-10.742 8.95c-1.474 1.228-2.32 3.034-2.32 4.954 0 3.555 2.893 6.448 6.448 6.448 1.92 0 3.726-.846 4.954-2.319l8.95-10.742-.938-.939 2.597-2.597c2.612 1.636 5.687 2.597 8.989 2.597 2.941 0 5.71-.752 8.125-2.072 1.893.701 3.864 1.072 5.875 1.072 9.374 0 17-7.626 17-17v-.207c0-3.968-1.399-7.833-3.939-10.884zm-22.061-14.706v-.203c0-1.103.897-2 2-2 .388 0 .561.161.995.658.467.534 1.173 1.342 2.501 1.342s2.034-.808 2.502-1.342c.435-.497.608-.658.996-.658.389 0 .562.161.999.658.468.534 1.174 1.342 2.504 1.342 1.329 0 2.035-.807 2.503-1.341.437-.498.61-.659 1-.659 1.103 0 2 .897 2 2v.203c0 .347-.091.69-.264.992l-3.316 5.805h-10.84l-3.317-5.805c-.172-.301-.263-.645-.263-.992zm-26.135 54.196c-.846 1.018-2.093 1.601-3.417 1.601-2.453 0-4.448-1.995-4.448-4.448 0-1.324.583-2.57 1.601-3.417l9.338-7.782 4.709 4.709zm8.135-11.813-2.586-2.586 2.353-2.353c.767.952 1.634 1.818 2.586 2.586zm-2-15.586c0-8.271 6.729-15 15-15s15 6.729 15 15-6.729 15-15 15-15-6.729-15-15zm44-1c0 8.271-6.729 15-15 15-1.263 0-2.507-.175-3.724-.489 4.077-3.109 6.724-8 6.724-13.511 0-7.056-4.323-13.119-10.458-15.687l1.927-2.313h11.062l5.992 7.189c2.243 2.692 3.477 6.103 3.477 9.604z" fill="#ffffff" data-original="#000000" style=""/><path xmlns="http://www.w3.org/2000/svg" d="m32 19c-7.168 0-13 5.832-13 13s5.832 13 13 13 13-5.832 13-13-5.832-13-13-13zm0 24c-6.065 0-11-4.935-11-11s4.935-11 11-11 11 4.935 11 11-4.935 11-11 11z" fill="#ffffff" data-original="#000000" style=""/><path xmlns="http://www.w3.org/2000/svg" d="m32 27c1.103 0 2 .897 2 2h2c0-1.859-1.279-3.411-3-3.858v-2.142h-2v2h-3v4c0 2.206 1.794 4 4 4 1.103 0 2 .897 2 2v2h-2c-1.103 0-2-.897-2-2h-2c0 1.859 1.279 3.411 3 3.858v2.142h2v-2h3v-4c0-2.206-1.794-4-4-4-1.103 0-2-.897-2-2v-2z" fill="#ffffff" data-original="#000000" style=""/><path xmlns="http://www.w3.org/2000/svg" d="m39 31h2v2h-2z" fill="#ffffff" data-original="#000000" style=""/><path xmlns="http://www.w3.org/2000/svg" d="m23 31h2v2h-2z" fill="#ffffff" data-original="#000000" style=""/><circle xmlns="http://www.w3.org/2000/svg" cx="6" cy="58" r="1" fill="#ffffff" data-original="#000000" style=""/></g></svg>
